# xmcd
#
# Track frame offsets: 
#        150
#        15607
#        39640
#        53880
#        77197
#        93922
#        118352
#        141320
#        162225
#        176742
#        194647
#
# Disc length: 2815 seconds
#
# Revision: 0
# Processed by: cddbd v1.5.2PL0 Copyright (c) Steve Scherf et al.
# Submitted via: ExactAudioCopy v1.0b3
#
DISCID=9c0afd0b
DTITLE=HooDoo Cats - It's HooDoo Time
DYEAR=1994
DGENRE=Blues
TTITLE0=Talk to Me, Baby
TTITLE1=I'll Never Walk out Your Door
TTITLE2=Flair It Up
TTITLE3=Yard Mowin' Blues
TTITLE4=I Like My Women Just a Little Bit Fat
TTITLE5=Tired of Workin'
TTITLE6=Go to Come Back
TTITLE7=Who Do?
TTITLE8=Sweetest Girls in Texas
TTITLE9=HooDoo Woman
TTITLE10=Mongo Play Drum
EXTD=
EXTT0=
EXTT1=
EXTT2=
EXTT3=
EXTT4=
EXTT5=
EXTT6=
EXTT7=
EXTT8=
EXTT9=
EXTT10=
PLAYORDER=
